<svg width="185" height="185" viewBox="0 0 185 185" fill="none" xmlns="http://www.w3.org/2000/svg">
<rect width="185" height="185" fill="#3A3A3A"/>
<path d="M151.359 115.31C150.972 127.28 148.057 136.875 142.614 144.094C137.17 151.313 130.703 154.923 123.212 154.924C117.111 154.924 111.764 151.391 107.17 144.325C102.575 137.26 100.277 126.391 100.278 111.719C100.278 108.476 100.355 105.387 100.51 102.453C100.664 99.5191 100.857 96.7392 101.089 94.1132L105.143 56.0052H78.386C73.7531 104.19 69.95 132.858 66.9769 142.009C64.0034 151.159 58.9649 155.734 51.8612 155.735C48.6547 155.656 45.595 154.374 43.2896 152.144C41.953 150.96 40.896 149.493 40.1949 147.851C39.4938 146.208 39.1661 144.43 39.2355 142.646C39.2355 139.095 42.0347 134.134 47.6331 127.762C53.2313 121.391 56.3394 115.58 56.9575 110.329L63.9072 56.0051H52.6721C49.5047 56.024 46.3876 56.7983 43.5795 58.2637C40.9948 59.4508 38.7458 61.2618 37.0349 63.5339L32.0541 70.9471H28C31.7827 59.2103 36.4353 50.3879 41.9576 44.48C47.4776 38.5726 53.829 35.6189 61.0116 35.619H149.506V56.0051H119.622C118.695 65.2715 117.981 74.5378 117.479 83.8041C116.976 93.0705 116.725 102.376 116.726 111.719C116.726 118.052 118.193 123.187 121.128 127.125C124.061 131.063 127.729 133.032 132.131 133.032C134.833 133.032 137.671 131.931 140.645 129.731C142.057 128.74 143.238 127.456 144.108 125.967C144.977 124.478 145.515 122.818 145.683 121.101C145.915 119.404 146.089 118.072 146.205 117.105C146.32 116.141 146.378 115.542 146.378 115.31L151.359 115.31Z" fill="#7D0000"/>
<path d="M153.359 111.691C152.972 123.661 150.057 133.256 144.614 140.475C139.17 147.694 132.703 151.304 125.212 151.305C119.111 151.305 113.764 147.772 109.17 140.706C104.575 133.641 102.277 122.772 102.278 108.1C102.278 104.857 102.355 101.768 102.51 98.8338C102.664 95.9001 102.857 93.1202 103.089 90.4942L107.143 52.3861H80.386C75.7531 100.571 71.95 129.239 68.9769 138.39C66.0034 147.54 60.9649 152.115 53.8612 152.116C50.6547 152.037 47.595 150.755 45.2896 148.525C43.953 147.341 42.896 145.874 42.1949 144.232C41.4938 142.589 41.1661 140.811 41.2355 139.027C41.2355 135.476 44.0347 130.515 49.6331 124.143C55.2313 117.772 58.3394 111.961 58.9575 106.71L65.9072 52.3861H54.6721C51.5047 52.405 48.3876 53.1793 45.5795 54.6447C42.9948 55.8318 40.7458 57.6428 39.0349 59.9149L34.0541 67.328H30C33.7827 55.5912 38.4353 46.7689 43.9576 40.861C49.4776 34.9536 55.829 32 63.0116 32H151.506V52.3861H121.622C120.695 61.6525 119.981 70.9189 119.479 80.1852C118.976 89.4516 118.725 98.7566 118.726 108.1C118.726 114.433 120.193 119.568 123.128 123.506C126.061 127.444 129.729 129.413 134.131 129.413C136.833 129.413 139.671 128.312 142.645 126.112C144.057 125.121 145.238 123.837 146.108 122.348C146.977 120.859 147.515 119.199 147.683 117.483C147.915 115.785 148.089 114.453 148.205 113.486C148.32 112.522 148.378 111.923 148.378 111.691H153.359Z" fill="#FF6363"/>
</svg>
